<svg xmlns="http://www.w3.org/2000/svg" width="1024" height="1024" fill="none" viewBox="0 0 1024 1024"><path fill="#000" d="M0 0h1024v1024H0z"/><path stroke="#fff" stroke-linecap="round" stroke-linejoin="round" stroke-width="60" d="M242 765.625v-506.25a84.37 84.37 0 0 1 24.713-59.662A84.37 84.37 0 0 1 326.375 175H748.25A33.75 33.75 0 0 1 782 208.75v607.5A33.75 33.75 0 0 1 748.25 850H326.375a84.37 84.37 0 0 1-59.662-24.713A84.37 84.37 0 0 1 242 765.625m0 0a84.37 84.37 0 0 1 24.713-59.662 84.37 84.37 0 0 1 59.662-24.713H782"/></svg>